<svg width="28" height="22" viewBox="0 0 28 22" fill="none" xmlns="http://www.w3.org/2000/svg">
<path d="M27.0334 2.71882C26.0511 3.15407 24.996 3.44816 23.8867 3.58108C25.0312 2.89621 25.8876 1.81829 26.2958 0.548462C25.2205 1.18721 24.0435 1.63681 22.8162 1.87773C21.9908 0.996491 20.8976 0.412389 19.7063 0.216113C18.515 0.019837 17.2922 0.222368 16.2277 0.792263C15.1633 1.36216 14.3168 2.26753 13.8197 3.36782C13.3225 4.4681 13.2025 5.70175 13.4783 6.87721C11.2994 6.76781 9.16776 6.20146 7.22184 5.21492C5.27592 4.22838 3.55919 2.8437 2.18305 1.15075C1.71251 1.96243 1.44195 2.90351 1.44195 3.90576C1.44142 4.80801 1.66361 5.69644 2.0888 6.49223C2.51398 7.28802 3.12902 7.96655 3.87934 8.46763C3.00917 8.43994 2.15819 8.20482 1.39725 7.78182V7.8524C1.39716 9.11785 1.83489 10.3443 2.63616 11.3238C3.43743 12.3032 4.55288 12.9753 5.79326 13.226C4.98603 13.4444 4.13971 13.4766 3.31822 13.3201C3.66818 14.4089 4.34987 15.3611 5.26786 16.0432C6.18585 16.7254 7.29418 17.1034 8.43769 17.1244C6.49652 18.6482 4.09918 19.4748 1.63134 19.4712C1.19419 19.4713 0.757404 19.4458 0.323242 19.3947C2.82825 21.0053 5.74425 21.8601 8.72236 21.8568C18.8037 21.8568 24.3148 13.5071 24.3148 6.26551C24.3148 6.03024 24.309 5.79262 24.2984 5.55735C25.3704 4.7821 26.2957 3.82211 27.031 2.72235L27.0334 2.71882Z" fill="#959595"/>
</svg>
