<svg width="22" height="22" viewBox="0 0 22 22" fill="none" xmlns="http://www.w3.org/2000/svg">
<path fill-rule="evenodd" clip-rule="evenodd" d="M15.7559 13.1551C15.4863 13.0203 14.1645 12.3707 13.9184 12.2802C13.6723 12.1907 13.4932 12.1463 13.3132 12.4159C13.134 12.6837 12.6192 13.2899 12.4627 13.469C12.3053 13.6491 12.1488 13.6708 11.8801 13.5369C11.6113 13.4012 10.7446 13.118 9.71774 12.2024C8.91886 11.4895 8.37874 10.6092 8.22222 10.3396C8.0657 10.0709 8.20503 9.9252 8.33983 9.7913C8.46107 9.67097 8.60854 9.47736 8.74334 9.32084C8.87815 9.16342 8.92248 9.05123 9.01205 8.87119C9.10252 8.69205 9.05729 8.53553 8.98943 8.40073C8.92248 8.26592 8.38507 6.9423 8.1607 6.40398C7.94265 5.88014 7.72099 5.95161 7.55633 5.94257C7.39891 5.93533 7.21977 5.93352 7.04064 5.93352C6.8615 5.93352 6.57017 6.00047 6.32409 6.27008C6.07709 6.53879 5.38316 7.18929 5.38316 8.51291C5.38316 9.83563 6.3458 11.114 6.48061 11.2941C6.61541 11.4732 8.37602 14.1892 11.073 15.3536C11.7154 15.6305 12.2157 15.796 12.6056 15.9191C13.2498 16.1244 13.8361 16.0955 14.2993 16.0258C14.815 15.9489 15.8898 15.3753 16.1142 14.7474C16.3377 14.1195 16.3377 13.5812 16.2707 13.469C16.2038 13.3569 16.0246 13.2899 15.755 13.1551H15.7559ZM10.8505 19.8528H10.8468C9.24496 19.8531 7.67248 19.4225 6.29423 18.6061L5.96853 18.4125L2.58301 19.301L3.48684 16.0005L3.27423 15.6621C2.37867 14.2366 1.90473 12.5867 1.90718 10.9032C1.90899 5.97242 5.92057 1.96083 10.8541 1.96083C13.2426 1.96083 15.4881 2.89271 17.1764 4.58275C18.0091 5.41201 18.6691 6.39816 19.1182 7.48414C19.5673 8.57012 19.7966 9.73438 19.7929 10.9096C19.791 15.8403 15.7795 19.8528 10.8505 19.8528ZM18.4611 3.29894C17.4642 2.29552 16.2782 1.49991 14.9716 0.95821C13.665 0.416513 12.264 0.139501 10.8496 0.143226C4.91994 0.143226 0.0922828 4.96998 0.0904733 10.9023C0.0895686 12.7986 0.584458 14.6497 1.52629 16.281L0 21.8568L5.70344 20.3604C7.28118 21.22 9.04923 21.6704 10.8459 21.6705H10.8505C16.7801 21.6705 21.6077 16.8437 21.6096 10.9105C21.6139 9.49661 21.3379 8.09592 20.7975 6.78943C20.2571 5.48293 19.463 4.29656 18.4611 3.29894Z" fill="#959595"/>
</svg>
